<?xml version="1.0"?>
<svg xmlns="http://www.w3.org/2000/svg" viewBox="0 0 512 512" width="512" height="512"><g id="Outline"><path d="M48,256H80V408H96V256H416V408h16V256h32a8,8,0,0,0,7.646-10.353l-32-104A8,8,0,0,0,432,136H408v16h18.092l27.076,88H58.832l27.076-88H104V136H80a8,8,0,0,0-7.646,5.647l-32,104A8,8,0,0,0,48,256Z"/><rect x="240" y="368" width="16" height="16"/><path d="M120,312v80a8,8,0,0,0,8,8h48a8,8,0,0,0,8-8V312a8,8,0,0,0-8-8H128A8,8,0,0,0,120,312Zm16,72V368h32v16Zm32-64v32H136V320Z"/><path d="M328,312v80a8,8,0,0,0,8,8h48a8,8,0,0,0,8-8V312a8,8,0,0,0-8-8H336A8,8,0,0,0,328,312Zm16,72V368h32v16Zm32-64v32H344V320Z"/><rect x="144" y="272" width="16" height="16"/><rect x="352" y="272" width="16" height="16"/><path d="M112,216H400a8,8,0,0,0,7.761-9.94l-32-128A8,8,0,0,0,368,72H144a8,8,0,0,0-7.761,6.06l-32,128A8,8,0,0,0,112,216Zm180.516-64h36.421l6,48H295.516Zm-13.032,48H232.516l3-48h40.968Zm12.032-64-3-48h32.421l6,48Zm-16.032,0H236.516l3-48h32.968Zm-55,0H185.062l6-48h32.422Zm-1,16-3,48H177.062l6-48Zm131.578,48-6-48h32.692l12,48Zm22.692-64H343.062l-6-48h24.692ZM150.246,88h24.691l-6,48H138.246Zm-16,64h32.691l-6,48H122.246Z"/><path d="M360,32A120.075,120.075,0,0,1,471.28,197l14.83,6A135.256,135.256,0,0,0,496,152c0-74.99-61.01-136-136-136a135.438,135.438,0,0,0-93.5,37.24l11,11.617A119.5,119.5,0,0,1,360,32Z"/><path d="M448,416a40.144,40.144,0,0,0-32.622,16.866A31.977,31.977,0,0,0,380.305,480H340.944l-13.789-27.578A8,8,0,0,0,320,448H304V344a48,48,0,0,0-96,0V448H192a8,8,0,0,0-7.155,4.422L171.056,480H131.7a31.982,31.982,0,0,0-35.073-47.134A40,40,0,1,0,64,496H448a40,40,0,0,0,0-80ZM224,344a32,32,0,0,1,64,0V448H224ZM196.944,464H315.056l8,16H188.944ZM104,480H64a24,24,0,1,1,21.808-34.02,8,8,0,0,0,10.915,3.773A15.81,15.81,0,0,1,104,448a16,16,0,0,1,0,32Zm344,0H408a16,16,0,0,1,0-32,15.81,15.81,0,0,1,7.277,1.753,8,8,0,0,0,10.915-3.773A24,24,0,1,1,448,480Z"/></g></svg>
