<svg id="Capa_1" enable-background="new 0 0 512 512" height="512" viewBox="0 0 512 512" width="512" xmlns="http://www.w3.org/2000/svg"><g><path d="m466.036 87.344c-3.049-2.803-7.794-2.603-10.598.447-2.803 3.05-2.603 7.794.447 10.597 26.076 23.965 41.062 58.01 41.114 93.405.087 58.599-43.543 119.763-83.91 162.499v-73.226c13.939 3.899 27.771-6.576 27.771-21.057v-21.348c0-11.669-7.367-22.19-18.332-26.182l-139.648-50.828c-17.293-6.295-36.342-6.295-53.636 0l-34.367 12.508v-37.669c0-8.117-4.444-15.21-11.023-18.989 10.329-9.911 19.484-21.93 23.454-34.22 17.065 10.229 31.552 24.325 42.245 41.235 1.375 2.174 3.767 3.492 6.339 3.492h.011c2.576-.004 4.97-1.329 6.34-3.51 23.404-37.255 63.584-59.536 107.48-59.602h.199c20.479 0 40.026 4.721 58.103 14.032 3.681 1.896 8.206.449 10.102-3.233 1.897-3.682.45-8.205-3.232-10.102-19.941-10.271-42.404-15.697-64.983-15.697h-.212c-45.324.068-87.102 21.314-113.833 57.364-12.426-16.605-28.336-30.313-46.639-40.151-2.996-30.638-39.97-44.383-62.317-23.741-20.831-19.124-54.592-8.657-61.325 18.568-51.088 22.142-85.671 72.796-85.586 130.599.091 60.304 43.532 134.104 119.185 202.479 3.076 2.781 7.82 2.534 10.593-.535 2.777-3.073 2.538-7.815-.535-10.593-5.209-4.708-10.271-9.48-15.208-14.292v-93.91l132.573-48.253c6.097-2.22 12.812-2.22 18.908 0l132.574 48.253v93.857c-20.359 19.877-42.836 38.723-65.844 55.267v-55.013c0-16.723-13.604-30.327-30.327-30.327h-91.714c-16.723 0-30.328 13.604-30.328 30.327v54.876c-7.849-5.611-15.647-11.495-23.308-17.596-3.241-2.58-7.959-2.045-10.539 1.194-2.581 3.24-2.046 7.959 1.194 10.539 25.263 20.119 52.017 37.97 77.369 51.624 19.936 10.738 43.728 10.708 63.641-.094 53.463-29 108.005-73.12 149.643-121.047 61.351-70.62 74.171-124.639 74.122-157.521-.058-39.573-16.811-77.635-45.963-104.426zm-148.79 347.869c-12.079 8.075-24.208 15.455-36.163 21.94-15.446 8.378-33.905 8.405-49.376.073-12.05-6.49-24.437-13.971-36.83-22.212v-65.219c0-8.452 6.876-15.327 15.328-15.327h91.714c8.451 0 15.327 6.875 15.327 15.327zm-195.519-386.599c.103.027 11.971-.51 18.863 10.391 2.956 4.675 9.772 4.626 12.689-.019 7.027-11.186 18.765-10.42 18.867-10.447 12.174 0 22.245 9.828 22.264 22.231.018 12.296-11.982 29.703-30.07 43.832h-34.71c-18.09-14.065-30.116-31.416-30.134-43.691-.019-12.304 9.924-22.279 22.231-22.297zm58.151 87.877v43.128l-65.843 23.965v-67.093c0-3.798 3.09-6.888 6.889-6.888h52.066c3.798 0 6.888 3.09 6.888 6.888zm-80.844 217.9c-40.121-42.403-83.947-103.685-84.034-161.879-.073-49.419 28.162-92.872 70.326-113.912 2.9 13.894 13.078 27.735 24.746 38.894-6.587 3.777-11.037 10.875-11.037 18.997v72.553l-9.438 3.435c-10.966 3.991-18.333 14.513-18.333 26.182v21.348c0 14.454 13.804 24.968 27.771 21.06v73.322zm171.613-141.055c-9.402-3.422-19.763-3.423-29.169 0l-145.987 53.134c-4.492 1.635-9.228-1.682-9.228-6.462v-21.348c0-5.387 3.401-10.244 8.463-12.086l139.649-50.828c13.985-5.091 29.39-5.091 43.375 0l139.649 50.828c5.063 1.842 8.463 6.699 8.463 12.086v21.348c0 4.771-4.73 8.101-9.228 6.462zm40.672 76.03c0-3.455 2.811-6.265 6.265-6.265 3.455 0 6.266 2.811 6.266 6.265 0 4.142 3.357 7.5 7.5 7.5s7.5-3.358 7.5-7.5c0-11.726-9.54-21.265-21.266-21.265s-21.265 9.54-21.265 21.265c0 4.142 3.358 7.5 7.5 7.5 4.143 0 7.5-3.358 7.5-7.5zm-19.729 106.197c-4.231 0-7.661 3.43-7.661 7.661s3.43 7.661 7.661 7.661 7.661-3.43 7.661-7.661-3.43-7.661-7.661-7.661zm-35.528-75.956c7.764 0 15.147-3.362 20.255-9.225 2.722-3.123 2.396-7.86-.728-10.581-3.123-2.721-7.861-2.396-10.581.727-2.26 2.593-5.521 4.08-8.947 4.08s-6.688-1.487-8.948-4.081c-2.721-3.122-7.459-3.446-10.582-.725-3.122 2.722-3.447 7.459-.726 10.582 5.112 5.861 12.494 9.223 20.257 9.223zm-67.787-30.241c0-3.455 2.811-6.265 6.265-6.265s6.265 2.811 6.265 6.265c0 4.142 3.358 7.5 7.5 7.5s7.5-3.358 7.5-7.5c0-11.726-9.54-21.265-21.265-21.265-11.726 0-21.265 9.54-21.265 21.265 0 4.142 3.358 7.5 7.5 7.5s7.5-3.358 7.5-7.5z"/></g></svg>